<svg width="30" height="30" viewBox="0 0 30 30" fill="none" xmlns="http://www.w3.org/2000/svg">
<path d="M14.999 0.665039C15.4898 0.665122 15.9525 0.831396 16.3262 1.13867L16.4805 1.2793H16.4814L28.7188 13.5166C28.7142 13.512 28.7104 13.5075 28.707 13.5039C28.7104 13.5075 28.7151 13.512 28.7207 13.5176V13.5186C29.4849 14.2846 29.5318 15.5014 28.8623 16.3232L28.7188 16.4824C28.3214 16.8796 27.7971 17.0967 27.2363 17.0967H26.1191V26.7676C26.1191 28.1824 24.9668 29.335 23.5518 29.335H18.7646C18.6468 29.335 18.5508 29.239 18.5508 29.1211V22.0605C18.5508 20.8799 17.5908 19.9209 16.4102 19.9209H13.5869C12.4064 19.9209 11.4463 20.8797 11.4463 22.0605V29.1211C11.4463 29.239 11.3503 29.335 11.2324 29.335H6.44531C5.03042 29.335 3.87793 28.1823 3.87793 26.7676V17.0967H2.72559C2.71848 17.0967 2.7111 17.0964 2.7041 17.0957L2.68652 17.0938H2.66895C2.20737 17.0738 1.77376 16.9058 1.42285 16.6143L1.27832 16.4824H1.27734C0.462297 15.6673 0.460752 14.3389 1.27344 13.5215L1.28027 13.5156L1.28223 13.5137V13.5127L1.28516 13.5107V13.5088L13.5156 1.2793C13.9127 0.882204 14.4378 0.665039 14.999 0.665039ZM14.999 1.09277C14.6097 1.09277 14.2379 1.22615 13.9404 1.4707L13.8184 1.58105L1.77539 13.624H1.77441L1.58105 13.8184H1.58008C1.57926 13.8192 1.57893 13.8205 1.57812 13.8213C0.928999 14.4728 0.929388 15.53 1.58008 16.1807V16.1797C1.84862 16.4486 2.19633 16.6149 2.56934 16.6572L2.73047 16.668H2.73926L2.76074 16.6699H4.0918C4.20951 16.6701 4.30446 16.7651 4.30469 16.8828V26.7676C4.30469 27.9482 5.26499 28.9072 6.44531 28.9072H11.0195V22.0605C11.0195 20.6457 12.1718 19.4932 13.5869 19.4932H16.4102C17.8252 19.4932 18.9775 20.6457 18.9775 22.0605V28.9072H23.5518C24.7324 28.9072 25.6924 27.9481 25.6924 26.7676V16.8828C25.6926 16.7651 25.7876 16.6701 25.9053 16.6699H27.2363C27.6256 16.6699 27.9976 16.5361 28.2949 16.292L28.417 16.1807C29.0264 15.5709 29.0653 14.6046 28.5342 13.9492L28.4209 13.8232L16.1787 1.58105C15.8644 1.26687 15.4433 1.09287 14.999 1.09277ZM1.49707 13.9209C1.50494 13.9091 1.52821 13.8732 1.56836 13.8311C1.53469 13.8665 1.51131 13.8995 1.49707 13.9209Z" fill="#80C07D" stroke="#D1D3D7" stroke-width="1.33073"/>
</svg>
