<svg width="30" height="30" viewBox="0 0 30 30" fill="none" xmlns="http://www.w3.org/2000/svg">
<path d="M9.6392 10.5898H7.0483C6.77557 10.5898 6.59375 10.7717 6.59375 11.0444V13.9535C6.59375 14.2262 6.77557 14.408 7.0483 14.408H9.6392C9.91193 14.408 10.0938 14.2262 10.0938 13.9535V11.0444C10.0938 10.7717 9.91193 10.5898 9.6392 10.5898ZM9.18466 13.4989H7.50284V11.4989H9.18466V13.4989Z" fill="#D1D3D7"/>
<path d="M11.7749 13.1367C11.5021 13.1367 11.3203 13.3185 11.3203 13.5913C11.3203 13.864 11.5021 14.0458 11.7749 14.0458H18.9112C19.1839 14.0458 19.3658 13.864 19.3658 13.5913C19.3658 13.3185 19.1839 13.1367 18.9112 13.1367H11.7749Z" fill="#D1D3D7"/>
<path d="M9.6392 16.5898H7.0483C6.77557 16.5898 6.59375 16.7717 6.59375 17.0444V19.9535C6.59375 20.2262 6.77557 20.408 7.0483 20.408H9.6392C9.91193 20.408 10.0938 20.2262 10.0938 19.9535V17.0444C10.0938 16.7717 9.91193 16.5898 9.6392 16.5898ZM9.18466 19.4535H7.50284V17.4535H9.18466V19.4535Z" fill="#D1D3D7"/>
<path d="M18.9112 16.9531H11.7749C11.5021 16.9531 11.3203 17.1349 11.3203 17.4077C11.3203 17.6804 11.5021 17.8622 11.7749 17.8622H18.9112C19.1839 17.8622 19.3658 17.6804 19.3658 17.4077C19.3658 17.1349 19.1839 16.9531 18.9112 16.9531Z" fill="#D1D3D7"/>
<path d="M18.9112 19.0898H11.7749C11.5021 19.0898 11.3203 19.2717 11.3203 19.5444C11.3203 19.8171 11.5021 19.9989 11.7749 19.9989H18.9112C19.1839 19.9989 19.3658 19.8171 19.3658 19.5444C19.3658 19.3171 19.1839 19.0898 18.9112 19.0898Z" fill="#D1D3D7"/>
<path d="M9.6392 22.543H7.0483C6.77557 22.543 6.59375 22.7248 6.59375 22.9975V25.9066C6.59375 26.1793 6.77557 26.3612 7.0483 26.3612H9.6392C9.91193 26.3612 10.0938 26.1793 10.0938 25.9066V22.9975C10.0938 22.7702 9.91193 22.543 9.6392 22.543ZM9.18466 25.4521H7.50284V23.4521H9.18466V25.4521Z" fill="#D1D3D7"/>
<path d="M18.9112 22.9102H11.7749C11.5021 22.9102 11.3203 23.092 11.3203 23.3647C11.3203 23.6374 11.5021 23.8192 11.7749 23.8192H18.9112C19.1839 23.8192 19.3658 23.6374 19.3658 23.3647C19.3658 23.1374 19.1839 22.9102 18.9112 22.9102Z" fill="#D1D3D7"/>
<path d="M18.9112 25.0898H11.7749C11.5021 25.0898 11.3203 25.2717 11.3203 25.5444C11.3203 25.8171 11.5021 25.9989 11.7749 25.9989H18.9112C19.1839 25.9989 19.3658 25.8171 19.3658 25.5444C19.3658 25.2717 19.1839 25.0898 18.9112 25.0898Z" fill="#D1D3D7"/>
<path d="M22.1832 0.726562C21.2287 0.726562 20.3196 0.953835 19.5014 1.36293H3.09233C2.22869 1.36293 1.54688 2.04474 1.54688 2.90838V27.6811C1.54688 28.5447 2.22869 29.2266 3.13778 29.2266H20.5469C21.4105 29.2266 22.0923 28.5447 22.0923 27.6811V13.272H22.2287C25.6832 13.272 28.5014 10.4538 28.5014 6.99929C28.456 3.54474 25.6378 0.726562 22.1832 0.726562ZM21.1378 27.6811C21.1378 28.0447 20.8196 28.3175 20.5014 28.3175H3.09233C2.72869 28.3175 2.41051 27.9993 2.41051 27.6811V2.90838C2.45597 2.54474 2.72869 2.27202 3.09233 2.27202H18.0923C16.7741 3.40838 15.9105 5.13565 15.9105 6.99929C15.9105 8.49929 16.456 9.86293 17.3196 10.9538H11.7741C11.5014 10.9538 11.3196 11.1357 11.3196 11.4084C11.3196 11.6811 11.5014 11.8629 11.7741 11.8629H18.2287C19.0469 12.5447 20.0469 12.9993 21.1378 13.1811V27.6811ZM22.1832 12.3629C19.2287 12.3629 16.8196 9.95384 16.8196 6.99929C16.8196 4.04474 19.2287 1.63565 22.1832 1.63565C25.1378 1.63565 27.5469 4.04474 27.5469 6.99929C27.5469 9.95384 25.1378 12.3629 22.1832 12.3629Z" fill="#D1D3D7"/>
<path d="M24.4545 9.40696H20.4091V4.58878H24.4545C24.7273 4.58878 24.9091 4.40696 24.9091 4.13423C24.9091 3.86151 24.7273 3.67969 24.4545 3.67969H19.9545C19.6818 3.67969 19.5 3.86151 19.5 4.13423V9.81605C19.5 10.0888 19.6818 10.2706 19.9545 10.2706H24.4545C24.7273 10.2706 24.9091 10.0888 24.9091 9.81605C24.9091 9.58878 24.7273 9.40696 24.4545 9.40696Z" fill="#D1D3D7"/>
<path d="M24.3185 5.54368L22.5458 7.31641L21.9094 6.68004C21.7276 6.49822 21.4549 6.49822 21.2731 6.68004C21.0913 6.86186 21.0913 7.13459 21.2731 7.31641L22.2276 8.27095C22.4094 8.45277 22.6822 8.45277 22.864 8.27095L24.9549 6.18004C25.1367 5.99822 25.1367 5.7255 24.9549 5.54368C24.7731 5.40732 24.5004 5.40732 24.3185 5.54368Z" fill="#D1D3D7"/>
<path d="M9.04545 9.22798V8.50071C9.04545 7.45526 8.5 6.59162 7.63636 6.13707C8.04545 5.77344 8.31818 5.27344 8.31818 4.68253C8.31818 3.63707 7.40909 2.77344 6.27273 2.77344C5.13636 2.77344 4.22727 3.63707 4.22727 4.68253C4.22727 5.27344 4.5 5.77344 4.90909 6.13707C4.09091 6.59162 3.5 7.50071 3.5 8.50071V9.22798C3.5 9.50071 3.68182 9.68253 3.95455 9.68253H8.5C8.86364 9.68253 9.04545 9.45526 9.04545 9.22798ZM6.31818 3.63707C6.95455 3.63707 7.45455 4.09162 7.45455 4.63707C7.45455 5.18253 6.95455 5.63707 6.31818 5.63707C5.68182 5.63707 5.18182 5.18253 5.18182 4.63707C5.18182 4.09162 5.68182 3.63707 6.31818 3.63707ZM8.13636 8.77344H4.5V8.50071C4.5 7.50071 5.31818 6.68253 6.31818 6.68253C7.31818 6.68253 8.13636 7.50071 8.13636 8.50071V8.77344Z" fill="#D1D3D7"/>
</svg>
