<svg width="30" height="30" viewBox="0 0 30 30" fill="none" xmlns="http://www.w3.org/2000/svg">
<g clip-path="url(#clip0_351_14150)">
<path d="M14.7844 14.4511C16.7697 14.4511 18.4886 13.7391 19.8935 12.3342C21.2979 10.9295 22.0102 9.21087 22.0102 7.22533C22.0102 5.24047 21.2981 3.52157 19.8933 2.11647C18.4884 0.71205 16.7695 0 14.7844 0C12.7988 0 11.0802 0.71205 9.67552 2.1167C8.27087 3.52134 7.55859 5.24024 7.55859 7.22533C7.55859 9.21087 8.27087 10.9298 9.67552 12.3344C11.0806 13.7388 12.7995 14.4511 14.7844 14.4511ZM10.9188 3.35975C11.9966 2.28195 13.261 1.75804 14.7844 1.75804C16.3076 1.75804 17.5722 2.28195 18.6502 3.35975C19.728 4.43778 20.2522 5.70235 20.2522 7.22533C20.2522 8.74876 19.728 10.0131 18.6502 11.0911C17.5722 12.1692 16.3076 12.6931 14.7844 12.6931C13.2614 12.6931 11.9971 12.1689 10.9188 11.0911C9.84077 10.0133 9.31664 8.74876 9.31664 7.22533C9.31664 5.70235 9.84077 4.43778 10.9188 3.35975Z" fill="#D1D3D7"/>
<path d="M27.4294 23.0695C27.3889 22.485 27.307 21.8473 27.1864 21.1739C27.0646 20.4955 26.9078 19.8542 26.7201 19.268C26.526 18.6622 26.2626 18.0639 25.9364 17.4905C25.5984 16.8954 25.201 16.3773 24.7552 15.9508C24.2889 15.5048 23.7181 15.1461 23.058 14.8845C22.4002 14.6243 21.6712 14.4924 20.8914 14.4924C20.5852 14.4924 20.289 14.6181 19.717 14.9905C19.365 15.22 18.9532 15.4855 18.4937 15.7792C18.1007 16.0296 17.5683 16.2642 16.9107 16.4766C16.2691 16.6842 15.6178 16.7895 14.9746 16.7895C14.3319 16.7895 13.6805 16.6842 13.0385 16.4766C12.3816 16.2644 11.849 16.0298 11.4567 15.7794C11.0014 15.4885 10.5894 15.223 10.2322 14.9902C9.66064 14.6178 9.36447 14.4922 9.05823 14.4922C8.2782 14.4922 7.54944 14.6243 6.89186 14.8847C6.23222 15.1459 5.66116 15.5045 5.19447 15.9511C4.74861 16.3777 4.35127 16.8957 4.01344 17.4905C3.68774 18.0639 3.42407 18.6619 3.22998 19.2683C3.04253 19.8544 2.88574 20.4955 2.76398 21.1739C2.64313 21.8464 2.56142 22.4843 2.5209 23.0702C2.48108 23.6431 2.46094 24.2393 2.46094 24.8417C2.46094 26.4078 2.95876 27.6755 3.94043 28.6105C4.90997 29.5331 6.19263 30.001 7.75291 30.001H22.1981C23.7579 30.001 25.0406 29.5331 26.0104 28.6105C26.9923 27.6762 27.4901 26.408 27.4901 24.8415C27.4899 24.237 27.4695 23.6408 27.4294 23.0695ZM24.7982 27.3368C24.1576 27.9465 23.307 28.2429 22.1979 28.2429H7.75291C6.64352 28.2429 5.793 27.9465 5.15259 27.337C4.52431 26.7389 4.21898 25.9225 4.21898 24.8417C4.21898 24.2796 4.23752 23.7246 4.2746 23.1917C4.31076 22.669 4.38469 22.0947 4.49432 21.4845C4.60258 20.8819 4.74037 20.3163 4.90425 19.8043C5.06149 19.3133 5.27596 18.8272 5.54192 18.3589C5.79575 17.9126 6.0878 17.5297 6.41006 17.2211C6.7115 16.9325 7.09145 16.6963 7.53914 16.5192C7.95319 16.3553 8.4185 16.2656 8.92365 16.2521C8.98521 16.2848 9.09485 16.3473 9.27246 16.4631C9.63387 16.6986 10.0504 16.9673 10.5109 17.2614C11.03 17.5924 11.6988 17.8913 12.4979 18.1493C13.3147 18.4134 14.1479 18.5475 14.9748 18.5475C15.8018 18.5475 16.6351 18.4134 17.4516 18.1495C18.2513 17.8911 18.9198 17.5924 19.4396 17.261C19.9109 16.9598 20.3158 16.6988 20.6772 16.4631C20.8548 16.3475 20.9644 16.2848 21.026 16.2521C21.5314 16.2656 21.9967 16.3553 22.411 16.5192C22.8584 16.6963 23.2384 16.9327 23.5398 17.2211C23.8621 17.5294 24.1541 17.9124 24.408 18.3591C24.6741 18.8272 24.8888 19.3136 25.0459 19.8041C25.21 20.3168 25.348 20.8821 25.456 21.4843C25.5654 22.0956 25.6396 22.6701 25.6757 23.192V23.1924C25.713 23.7232 25.7318 24.278 25.732 24.8417C25.7318 25.9228 25.4265 26.7389 24.7982 27.3368Z" fill="#D1D3D7"/>
</g>
<defs>
<clipPath id="clip0_351_14150">
<rect width="30" height="30" fill="white"/>
</clipPath>
</defs>
</svg>
