<svg width="30" height="30" viewBox="0 0 30 30" fill="none" xmlns="http://www.w3.org/2000/svg">
<path d="M12.0741 24.1394C14.7555 24.1394 17.3602 23.2448 19.4757 21.5971L27.4567 29.5781C28.0529 30.1539 29.0029 30.1373 29.5787 29.5411C30.1404 28.9595 30.1404 28.0375 29.5787 27.456L21.5977 19.4751C25.6864 14.2119 24.7343 6.63077 19.4711 2.54213C14.2079 -1.5465 6.62686 -0.5944 2.53823 4.66878C-1.55041 9.93195 -0.598307 17.5131 4.66487 21.6017C6.78378 23.2478 9.39086 24.1407 12.0741 24.1394ZM5.66143 5.66072C9.20306 2.11903 14.9452 2.11896 18.4869 5.66059C22.0286 9.20223 22.0286 14.9443 18.487 18.486C14.9454 22.0277 9.20326 22.0278 5.66156 18.4862C5.6615 18.4861 5.6615 18.4861 5.66143 18.486C2.1198 14.9702 2.09893 9.24903 5.61476 5.7074C5.6303 5.6918 5.64583 5.67626 5.66143 5.66072Z" fill="#D1D3D7"/>
</svg>
